<svg width="78" height="34" viewBox="0 0 78 34" fill="none" xmlns="http://www.w3.org/2000/svg" xmlns:c2pa="http://c2pa.org/manifest"><metadata><c2pa:manifest>AAAWgmp1bWIAAAAeanVtZGMycGEAEQAQgAAAqgA4m3EDYzJwYQAAABZcanVtYgAAAEdqdW1kYzJtYQARABCAAACqADibcQN1cm46YzJwYTphYThkN2JlNi00NzNjLTQyY2ItODA0NS1mZWY1OTAzNmM4ODUAAAADl2p1bWIAAAApanVtZGMyYXMAEQAQgAAAqgA4m3EDYzJwYS5hc3NlcnRpb25zAAAAALxqdW1iAAAARGp1bWRjYm9yABEAEIAAAKoAOJtxE2MycGEuaW5ncmVkaWVudC52MwAAAAAYYzJzaKNYk1yFmN861uGc8ufuDUMAAABwY2JvcqNpZGM6Zm9ybWF0bWltYWdlL3N2Zyt4bWxqaW5zdGFuY2VJRHgseG1wOmlpZDphMThkOTQwMi03ZjU5LTQ0MjctOTA1Ny1hYzhkM2U0MzVhZjNscmVsYXRpb25zaGlwaHBhcmVudE9mAAAB4mp1bWIAAABBanVtZGNib3IAEQAQgAAAqgA4m3ETYzJwYS5hY3Rpb25zLnYyAAAAABhjMnNor0XRfVwbyi46kkG8TMK8hwAAAZljYm9yomdhY3Rpb25zgqJmYWN0aW9ua2MycGEub3BlbmVkanBhcmFtZXRlcnOha2luZ3JlZGllbnRzgaJjdXJseC1zZWxmI2p1bWJmPWMycGEuYXNzZXJ0aW9ucy9jMnBhLmluZ3JlZGllbnQudjNkaGFzaFggSs+f9SHn2u9BS090wRyGTLM5CEXUtzWYkoMWmCNBv5mkZmFjdGlvbngdY29tLmFudGhyb3BpYy5jbGF1ZGUucHJvdmlkZWRqcGFyYW1ldGVyc6F4H2NvbS5hbnRocm9waWMub3JpZ2luLWNvbmZpZGVuY2VndW5rbm93bmtkZXNjcmlwdGlvbnhmQ2xhdWRlIHByb3ZpZGVkIHRoaXMgZmlsZSBhdCB0aGUgcmVxdWVzdCBvZiBhIHVzZXIgYW5kIG1heSBoYXZlIGNyZWF0ZWQgb3IgbW9kaWZpZWQgdGhlIGZpbGUgY29udGVudHMubXNvZnR3YXJlQWdlbnShZG5hbWVmQ2xhdWRlcmFsbEFjdGlvbnNJbmNsdWRlZPUAAADIanVtYgAAAEBqdW1kY2JvcgARABCAAACqADibcRNjMnBhLmhhc2guZGF0YQAAAAAYYzJzaJeZBKmoi1a4MNE+Du30cokAAACAY2JvcqVjYWxnZnNoYTI1NmNwYWRNAAAAAAAAAAAAAAAAAGRoYXNoWCA0amIGXQzUJV0eQgp7CuDG696K2xhxWZ2pw9gygD/ukmRuYW1lbmp1bWJmIG1hbmlmZXN0amV4Y2x1c2lvbnOBomVzdGFydBieZmxlbmd0aBkeBAAAAj5qdW1iAAAAJ2p1bWRjMmNsABEAEIAAAKoAOJtxA2MycGEuY2xhaW0udjIAAAACD2Nib3KlY2FsZ2ZzaGEyNTZpc2lnbmF0dXJleE1zZWxmI2p1bWJmPS9jMnBhL3VybjpjMnBhOmFhOGQ3YmU2LTQ3M2MtNDJjYi04MDQ1LWZlZjU5MDM2Yzg4NS9jMnBhLnNpZ25hdHVyZWppbnN0YW5jZUlEeCx4bXA6aWlkOmY1MTMzYTZkLWMwNjYtNGVlYi05MjZhLTI3ZTA2ZmIxNzZkY3JjcmVhdGVkX2Fzc2VydGlvbnODomN1cmx4LXNlbGYjanVtYmY9YzJwYS5hc3NlcnRpb25zL2MycGEuaW5ncmVkaWVudC52M2RoYXNoWCBKz5/1Iefa70FLT3TBHIZMszkIRdS3NZiSgxaYI0G/maJjdXJseCpzZWxmI2p1bWJmPWMycGEuYXNzZXJ0aW9ucy9jMnBhLmFjdGlvbnMudjJkaGFzaFggZ/QJ0Ifwh35GR/k6lYNulDRRqs3Pl9/ROpg1js4IMxGiY3VybHgpc2VsZiNqdW1iZj1jMnBhLmFzc2VydGlvbnMvYzJwYS5oYXNoLmRhdGFkaGFzaFggoy38P/kdMxXGVpuDqNCiTVaMC5Va1G4KYlCTEcaGpHR0Y2xhaW1fZ2VuZXJhdG9yX2luZm+jZG5hbWVvQW50aHJvcGljIEZpbGVzZ3ZlcnNpb25lMS4wLjBrc3BlY1ZlcnNpb25lMi40LjAAABA4anVtYgAAAChqdW1kYzJjcwARABCAAACqADibcQNjMnBhLnNpZ25hdHVyZQAAABAIY2JvctKEWQISogEmGCFZAgowggIGMIIBjaADAgECAhRA5aAK7sI50L64g/oGQgU9Z1UTADAKBggqhkjOPQQDAzBJMRcwFQYDVQQKEw5BbnRocm9waWMsIFBCQzEuMCwGA1UEAxMlQW50aHJvcGljIENvbnRlbnQgQ3JlZGVudGlhbHMgUm9vdCBDQTAeFw0yNjA4MDcxODQzNTZaFw0yODA4MDYxOTQzNTZaMEQxFzAVBgNVBAoTDkFudGhyb3BpYywgUEJDMSkwJwYDVQQDEyBBbnRocm9waWMgQ2xhdWRlIENvbnRlbnQgU2lnbmluZzBZMBMGByqGSM49AgEGCCqGSM49AwEHA0IABJh6CmvLUBgFFNU0vUKlOVtE6djd17L5SuwX0LemFisBM3dkd/3cyjxFA3Qo5S46fX0/ihY0VZ7mfb9KF703t5OjWDBWMA4GA1UdDwEB/wQEAwIHgDAVBgNVHSUEDjAMBgorBgEEAYPoXgIBMAwGA1UdEwEB/wQCMAAwHwYDVR0jBBgwFoAUzlHiBIFOZFsj+OPEz5o+nMHXXMIwCgYIKoZIzj0EAwMDZwAwZAIwMXMdFJ4BetLLVY7ORuE9noqbbAZOZn/aArXyTwFAZfKrPzxF2vPoJNf1+UCdg1XGAjBwX1zd9WGqYkqmL5SFqw1QySjr1zJfpJM9+1rdDwSPLMOPOjKuiXjoU/pUUeG9RwmhY3BhZFkNngAAAAAAAAAAAAAAAAAAAAAAAAAAAAAAAAAAAAAAAAAAAAAAAAAAAAAAAAAAAAAAAAAAAAAAAAAAAAAAAAAAAAAAAAAAAAAAAAAAAAAAAAAAAAAAAAAAAAAAAAAAAAAAAAAAAAAAAAAAAAAAAAAAAAAAAAAAAAAAAAAAAAAAAAAAAAAAAAAAAAAAAAAAAAAAAAAAAAAAAAAAAAAAAAAAAAAAAAAAAAAAAAAAAAAAAAAAAAAAAAAAAAAAAAAAAAAAAAAAAAAAAAAAAAAAAAAAAAAAAAAAAAAAAAAAAAAAAAAAAAAAAAAAAAAAAAAAAAAAAAAAAAAAAAAAAAAAAAAAAAAAAAAAAAAAAAAAAAAAAAAAAAAAAAAAAAAAAAAAAAAAAAAAAAAAAAAAAAAAAAAAAAAAAAAAAAAAAAAAAAAAAAAAAAAAAAAAAAAAAAAAAAAAAAAAAAAAAAAAAAAAAAAAAAAAAAAAAAAAAAAAAAAAAAAAAAAAAAAAAAAAAAAAAAAAAAAAAAAAAAAAAAAAAAAAAAAAAAAAAAAAAAAAAAAAAAAAAAAAAAAAAAAAAAAAAAAAAAAAAAAAAAAAAAAAAAAAAAAAAAAAAAAAAAAAAAAAAAAAAAAAAAAAAAAAAAAAAAAAAAAAAAAAAAAAAAAAAAAAAAAAAAAAAAAAAAAAAAAAAAAAAAAAAAAAAAAAAAAAAAAAAAAAAAAAAAAAAAAAAAAAAAAAAAAAAAAAAAAAAAAAAAAAAAAAAAAAAAAAAAAAAAAAAAAAAAAAAAAAAAAAAAAAAAAAAAAAAAAAAAAAAAAAAAAAAAAAAAAAAAAAAAAAAAAAAAAAAAAAAAAAAAAAAAAAAAAAAAAAAAAAAAAAAAAAAAAAAAAAAAAAAAAAAAAAAAAAAAAAAAAAAAAAAAAAAAAAAAAAAAAAAAAAAAAAAAAAAAAAAAAAAAAAAAAAAAAAAAAAAAAAAAAAAAAAAAAAAAAAAAAAAAAAAAAAAAAAAAAAAAAAAAAAAAAAAAAAAAAAAAAAAAAAAAAAAAAAAAAAAAAAAAAAAAAAAAAAAAAAAAAAAAAAAAAAAAAAAAAAAAAAAAAAAAAAAAAAAAAAAAAAAAAAAAAAAAAAAAAAAAAAAAAAAAAAAAAAAAAAAAAAAAAAAAAAAAAAAAAAAAAAAAAAAAAAAAAAAAAAAAAAAAAAAAAAAAAAAAAAAAAAAAAAAAAAAAAAAAAAAAAAAAAAAAAAAAAAAAAAAAAAAAAAAAAAAAAAAAAAAAAAAAAAAAAAAAAAAAAAAAAAAAAAAAAAAAAAAAAAAAAAAAAAAAAAAAAAAAAAAAAAAAAAAAAAAAAAAAAAAAAAAAAAAAAAAAAAAAAAAAAAAAAAAAAAAAAAAAAAAAAAAAAAAAAAAAAAAAAAAAAAAAAAAAAAAAAAAAAAAAAAAAAAAAAAAAAAAAAAAAAAAAAAAAAAAAAAAAAAAAAAAAAAAAAAAAAAAAAAAAAAAAAAAAAAAAAAAAAAAAAAAAAAAAAAAAAAAAAAAAAAAAAAAAAAAAAAAAAAAAAAAAAAAAAAAAAAAAAAAAAAAAAAAAAAAAAAAAAAAAAAAAAAAAAAAAAAAAAAAAAAAAAAAAAAAAAAAAAAAAAAAAAAAAAAAAAAAAAAAAAAAAAAAAAAAAAAAAAAAAAAAAAAAAAAAAAAAAAAAAAAAAAAAAAAAAAAAAAAAAAAAAAAAAAAAAAAAAAAAAAAAAAAAAAAAAAAAAAAAAAAAAAAAAAAAAAAAAAAAAAAAAAAAAAAAAAAAAAAAAAAAAAAAAAAAAAAAAAAAAAAAAAAAAAAAAAAAAAAAAAAAAAAAAAAAAAAAAAAAAAAAAAAAAAAAAAAAAAAAAAAAAAAAAAAAAAAAAAAAAAAAAAAAAAAAAAAAAAAAAAAAAAAAAAAAAAAAAAAAAAAAAAAAAAAAAAAAAAAAAAAAAAAAAAAAAAAAAAAAAAAAAAAAAAAAAAAAAAAAAAAAAAAAAAAAAAAAAAAAAAAAAAAAAAAAAAAAAAAAAAAAAAAAAAAAAAAAAAAAAAAAAAAAAAAAAAAAAAAAAAAAAAAAAAAAAAAAAAAAAAAAAAAAAAAAAAAAAAAAAAAAAAAAAAAAAAAAAAAAAAAAAAAAAAAAAAAAAAAAAAAAAAAAAAAAAAAAAAAAAAAAAAAAAAAAAAAAAAAAAAAAAAAAAAAAAAAAAAAAAAAAAAAAAAAAAAAAAAAAAAAAAAAAAAAAAAAAAAAAAAAAAAAAAAAAAAAAAAAAAAAAAAAAAAAAAAAAAAAAAAAAAAAAAAAAAAAAAAAAAAAAAAAAAAAAAAAAAAAAAAAAAAAAAAAAAAAAAAAAAAAAAAAAAAAAAAAAAAAAAAAAAAAAAAAAAAAAAAAAAAAAAAAAAAAAAAAAAAAAAAAAAAAAAAAAAAAAAAAAAAAAAAAAAAAAAAAAAAAAAAAAAAAAAAAAAAAAAAAAAAAAAAAAAAAAAAAAAAAAAAAAAAAAAAAAAAAAAAAAAAAAAAAAAAAAAAAAAAAAAAAAAAAAAAAAAAAAAAAAAAAAAAAAAAAAAAAAAAAAAAAAAAAAAAAAAAAAAAAAAAAAAAAAAAAAAAAAAAAAAAAAAAAAAAAAAAAAAAAAAAAAAAAAAAAAAAAAAAAAAAAAAAAAAAAAAAAAAAAAAAAAAAAAAAAAAAAAAAAAAAAAAAAAAAAAAAAAAAAAAAAAAAAAAAAAAAAAAAAAAAAAAAAAAAAAAAAAAAAAAAAAAAAAAAAAAAAAAAAAAAAAAAAAAAAAAAAAAAAAAAAAAAAAAAAAAAAAAAAAAAAAAAAAAAAAAAAAAAAAAAAAAAAAAAAAAAAAAAAAAAAAAAAAAAAAAAAAAAAAAAAAAAAAAAAAAAAAAAAAAAAAAAAAAAAAAAAAAAAAAAAAAAAAAAAAAAAAAAAAAAAAAAAAAAAAAAAAAAAAAAAAAAAAAAAAAAAAAAAAAAAAAAAAAAAAAAAAAAAAAAAAAAAAAAAAAAAAAAAAAAAAAAAAAAAAAAAAAAAAAAAAAAAAAAAAAAAAAAAAAAAAAAAAAAAAAAAAAAAAAAAAAAAAAAAAAAAAAAAAAAAAAAAAAAAAAAAAAAAAAAAAAAAAAAAAAAAAAAAAAAAAAAAAAAAAAAAAAAAAAAAAAAAAAAAAAAAAAAAAAAAAAAAAAAAAAAAAAAAAAAAAAAAAAAAAAAAAAAAAAAAAAAAAAAAAAAAAAAAAAAAAAAAAAAAAAAAAAAAAAAAAAAAAAAAAAAAAAAAAAAAAAAAAAAAAAAAAAAAAAAAAAAAAAAAAAAAAAAAAAAAAAAAAAAAAAAAAAAAAAAAAAAAAAAAAAAAAAAAAAAAAAAAAAAAAAAAAAAAAAAAAAAAAAAAAAAAAAAAAAAAAAAAAAAAAAAAAAAAAAAAAAAAAAAAAAAAAAAAAAAAAAAAAAAAAAAAAAAAAAAAAAAAAAAAAAAAAAAAAAAAAAAAAAAAAAAAAAAAAAAAAAAAAAAAAAAAAAAAAAAAAAAAAAAAAAAAAAAAAAAAAAAAAAAAAAAAAAAAAAAAAAAAAAAAAAAAAAAAAAAAAAAAAAAAAAAAAAAAAAAAAAAAAAAAAAAAAAAAAAAAAAAAAAAAAAAAAAAAAAAAAAAAAAAAAAAAAAAAAAAAAAAAAAAAAAAAAAAAAAAAAAAAAAAAAAAAAAAAAAAAAAAAAAAAAAAAAAAAAAAAAAAAAAAAAAAAAAAAAAAAAAAAAAAAAAAAAAAAAAAAAAAAAAAAAAAAAAAAAAAAAAAAAAAAAAAAAAAAAAAAAAAAAAAAAAAAAAAAAAAAAAAAAAAAAAAAAAAAAAAAAAAAAAAAAAAAAAAAAAAAAAAAAAAAAAAAAAAAAAAAAAAAAAAAAAAAAAAAAAAAAAAAAAAAAAAAAAAAAAAAAAAAAAAAAAAAAAAAAAAAAAAAAAAAAAAAAAAAAAAAAAAAAAAAAAAAAAAAAAAAAAAAAAAAAAAAAAAAAAAAAAAAAAAAAAAAAAAAAAAAAAAAAAAAAAAAAAAAAAAAAAAAAAAAAAAAAAAAAAAAAAAAAAAAAAAAAAAAAAAAAAAAAAAAAAAAAAAAAAAAAAAAAAAAAAAAAAAAAAAAAAAAAAAAAAAAAAAAAAAAAAAAAAAAAAAAAAAAAAAAAAAAAAAAAAAAAAAAAAAAAAAAAAAAAAAAAAAAAAAAAAAAAAAAAAAAAAAAAAAAAAAAAAAAAAAAAAAAAAAAAAAAAAAAAAAAAAAAAAAAAAAAAAAAAAAAAAAAAAAAAAAAAAAAAAAAAAAAAAAAAAAAAAAAAAAAAAAAAAAAAAAAAAAAAAAAAAAAAAAAAAAAAAAAAAAAAAAAAAAAAAAAAAAAAAAAAAAAAAAAAAAAAAAAAAAAAAAAAAAAAAAAAAAAAAAAAAAAAAAAAAAAAAAAAAAAAAAAAAAAAAAAAAAAAAAAAAAAAAAAAAAAAAAAAAAAAAAAAAAAAAAAAAAAAAAAAAAAAAAAAAAAAAAAAAAAAAAAAAAAAAAAAAAAAAAAAAAAAAAAAAAAAAAAAAAAAAAAAAAAAAAAAAAAAAAAAAAAAAAAAAAAAAAAAAAAAAAAAAAAAAAAAAAAAAAAAAAAAAAAAAAAAAAAAAAAAAAAAAAAAAAAAAAAAAAAAAAAAAAAAAAAAPZYQMT+bqlcK/py2eiLSLUzol0iAw/hJ2hf6X7Sr7F3lB1PcUjqiMVQ8qMzhG/fIm0RsLt/kPhsWLhh+2WUrX2Ig3M=</c2pa:manifest></metadata>
<g clip-path="url(#clip0_6029_130)">
<path d="M8.63429 18.3758C9.45468 19.5212 9.86263 20.9529 9.86263 22.6755C9.86263 24.3981 9.45468 25.7673 8.63429 26.9127C7.71975 28.1834 6.48244 28.8187 4.93132 28.8187C3.38019 28.8187 2.10702 28.1834 1.20593 26.9127C0.403471 25.7673 0 24.3579 0 22.6755C0 20.9932 0.398988 19.5167 1.20593 18.3758C2.10702 17.1051 3.3533 16.4697 4.93132 16.4697C6.50934 16.4697 7.71975 17.1051 8.63429 18.3758ZM2.91844 19.906C2.49256 20.68 2.28186 21.6062 2.28186 22.68C2.28186 23.7538 2.49256 24.6487 2.91844 25.4093C3.41158 26.255 4.07506 26.68 4.9089 26.68C5.74274 26.68 6.41071 26.255 6.92178 25.4093C7.37456 24.6487 7.59871 23.7359 7.59871 22.68C7.59871 21.6241 7.37456 20.6845 6.92178 19.906C6.4152 19.0469 5.74274 18.6174 4.9089 18.6174C4.07506 18.6174 3.41158 19.0469 2.91844 19.906ZM11.3555 19.0424V16.4831H13.7315V33.6688H11.3555V26.5189H8.28013V24.3534H11.3555V21.2169H8.28013V19.0469H11.3555V19.0424ZM15.2692 16.4742H17.6676V33.6599H15.2692V16.4742Z" fill="#231F20"/>
<path opacity="0.3" d="M49.5239 33.5885C49.5239 33.8167 53.1955 34.0046 57.7278 34.0046C62.2602 34.0046 65.9318 33.8211 65.9318 33.5885C65.9318 33.3558 62.2602 33.1724 57.7278 33.1724C53.1955 33.1724 49.5239 33.3558 49.5239 33.5885Z" fill="black"/>
<path d="M65.7524 30.2594C65.7524 30.0759 65.5551 29.9417 65.322 29.9596C65.0889 29.9775 64.9051 30.1341 64.9096 30.3176C64.9096 30.3712 64.9275 30.416 64.9589 30.4563C64.8423 30.4339 64.7213 30.4205 64.5958 30.4294C64.0219 30.4697 63.5692 30.8634 63.5781 31.3153C63.5871 31.7627 64.0578 32.0938 64.6272 32.0536C65.201 32.0133 65.6582 31.6196 65.6538 31.1721C65.6493 30.9439 65.5238 30.7471 65.331 30.6173H65.34C65.5731 30.5994 65.7614 30.4428 65.7569 30.2594H65.7524Z" fill="url(#paint0_radial_6029_130)"/>
<path d="M67.5366 26.4565C67.5366 26.4923 67.5366 26.5102 67.5366 26.5102C67.5366 26.5102 69.1057 26.989 71.4324 24.7921C70.3475 25.1142 69.3657 25.2082 69.3657 25.2082C70.2802 25.074 71.2127 24.6847 71.8582 24.367C72.0286 24.1836 72.2034 23.9867 72.3872 23.772C72.0196 23.933 71.4817 24.1344 70.7599 24.3089C70.7599 24.3089 71.6565 24.0225 72.7324 23.3514C73.0597 22.9353 73.4004 22.4655 73.7456 21.9375C75.3505 19.4946 76.3502 16.6668 76.9734 14.027C76.7044 14.2507 75.9019 14.8905 75.1802 15.2216C75.1802 15.2216 76.3368 14.5236 77.0317 13.7764C78.0986 9.07844 77.991 5.06055 77.991 5.06055C77.6055 12.0494 69.025 24.3626 67.5366 26.4565Z" fill="url(#paint1_linear_6029_130)"/>
<path d="M77.9955 5.06063C77.3902 8.98009 73.9697 13.7273 70.2712 18.1881C69.7422 18.8235 69.3208 19.4857 68.9756 20.1434C68.3435 22.3805 68.6215 24.0092 68.6215 24.0092C68.4332 22.9756 68.6035 21.5081 68.7515 20.5819C68.5632 20.989 68.4018 21.3917 68.2628 21.7899C67.9804 23.347 68.1508 24.7072 68.1508 24.7072C68.0387 24.0002 68.0207 23.1501 68.0297 22.5416C67.4738 24.5282 67.5231 26.1479 67.5366 26.4521C69.0249 24.3582 77.6054 12.045 77.991 5.05615L77.9955 5.06063Z" fill="url(#paint2_linear_6029_130)"/>
<path d="M67.6532 26.8723C67.0435 27.8163 66.3128 28.7336 65.6493 29.4047C65.6493 29.4047 66.6445 27.5702 67.967 25.5255C69.2895 23.4808 75.4133 14.4427 77.3186 8.47852C77.3186 8.47852 75.902 14.219 69.5181 23.9819C69.5181 23.9819 68.6933 25.266 67.6532 26.8723Z" fill="url(#paint3_linear_6029_130)"/>
<path d="M66.7521 27.4494C66.7521 27.4494 66.7252 28.0042 67.0973 27.4986C67.4694 26.9975 67.4649 27.1228 67.4649 27.1228C67.4649 27.1228 66.4069 28.8409 65.6493 29.4002C65.6493 29.4002 66.4338 28.0356 66.7521 27.445V27.4494Z" fill="url(#paint4_linear_6029_130)"/>
<path d="M66.362 18.7158C66.8641 19.4988 66.64 20.5413 65.8599 21.0424L47.8786 32.6039C47.094 33.1095 46.0495 32.8813 45.5474 32.1028L33.9633 14.1565C33.4612 13.3735 33.6853 12.331 34.4654 11.8299L52.4423 0.26833C53.2268 -0.237263 54.2713 -0.00907511 54.7734 0.769448L66.3576 18.7158H66.362Z" fill="#BC2836"/>
<path d="M32.3808 22.5458C33.5329 23.7896 35.2275 24.7695 37.4556 25.4943L36.1734 27.1453C34.3578 26.5368 32.8694 25.8523 31.7039 25.0872C30.4845 24.2863 29.5206 23.3422 28.8078 22.255C28.1488 23.3422 27.2074 24.2863 25.988 25.0872C24.8224 25.8523 23.3161 26.5368 21.4781 27.1453L20.3304 25.4943C22.4554 24.7695 24.0962 23.7807 25.2483 22.5234C26.6874 20.9574 27.4046 18.9395 27.4046 16.4697H30.2603C30.2603 18.9798 30.9686 21.0022 32.3808 22.5413V22.5458ZM37.2807 31.5928V33.6465H20.4425V31.5928H37.2807Z" fill="#231F20"/>
<path d="M51.9134 3.74039L53.1596 5.65091L51.1513 6.95292L52.7293 9.37798L54.7377 8.07596L55.9705 9.96858L50.3533 13.6062L51.2275 14.9484L57.4544 10.9127L58.7007 12.8232L43.2925 22.8097L42.0462 20.8992L48.6094 16.6442L47.7352 15.2974L41.7997 19.1453L40.5669 17.2527L42.6111 15.9283L41.0331 13.5033L38.9888 14.8276L37.7426 12.9127L51.9089 3.73145L51.9134 3.74039ZM43.6736 11.7986L45.2516 14.2236L50.0888 11.0872L48.5108 8.66209L43.6736 11.7986ZM58.6334 14.6397L62.4081 20.4429L50.9181 27.8925C50.1964 28.3623 49.5329 28.5368 48.9366 28.4205C48.3583 28.3086 47.8787 27.9596 47.4931 27.369L44.9737 23.4988L58.6334 14.6442V14.6397ZM48.8828 23.7404L50.1291 25.6509L58.5168 20.2147L57.2706 18.2997L48.8828 23.7359V23.7404Z" fill="white"/>
</g>
<defs>
<radialGradient id="paint0_radial_6029_130" cx="0" cy="0" r="1" gradientTransform="matrix(1.12321 -0.0783894 0.0906258 1.29349 65.3045 31.9432)" gradientUnits="userSpaceOnUse">
<stop stop-color="#4D4D4D"/>
<stop offset="1"/>
</radialGradient>
<linearGradient id="paint1_linear_6029_130" x1="70.2964" y1="15.0779" x2="76.7872" y2="19.7237" gradientUnits="userSpaceOnUse">
<stop stop-color="#FECE38"/>
<stop offset="0.65" stop-color="#E99C33"/>
<stop offset="1" stop-color="#E08731"/>
</linearGradient>
<linearGradient id="paint2_linear_6029_130" x1="66.2268" y1="17.7545" x2="80.0089" y2="15.4535" gradientUnits="userSpaceOnUse">
<stop stop-color="#FECE38"/>
<stop offset="0.65" stop-color="#E99C33"/>
<stop offset="1" stop-color="#E08731"/>
</linearGradient>
<linearGradient id="paint3_linear_6029_130" x1="71.9933" y1="20.4025" x2="72.6995" y2="20.9074" gradientUnits="userSpaceOnUse">
<stop stop-color="#F5F5F5"/>
<stop offset="1" stop-color="#CCCCCC"/>
</linearGradient>
<linearGradient id="paint4_linear_6029_130" x1="66.7938" y1="26.9072" x2="67.6456" y2="28.1881" gradientUnits="userSpaceOnUse">
<stop stop-color="#808080"/>
<stop offset="1"/>
</linearGradient>
<clipPath id="clip0_6029_130">
<rect width="78" height="34" fill="white"/>
</clipPath>
</defs>
</svg>
